# Blender3D v249 OBJ File: 
# www.blender3d.org
mtllib level.mtl
v 1.000000 -0.000000 -1.000000
v 1.000000 0.000000 1.000000
v -1.000000 0.000000 1.000000
v -1.000000 -0.000000 -1.000000
v 1.000000 1.055716 10.024664
v -1.000000 1.055716 10.024664
v 2.975209 -0.000000 -1.000000
v 2.975209 0.000000 1.000000
v -2.975209 0.000000 1.000000
v -2.975209 -0.000000 -1.000000
v -2.975209 1.055716 10.024664
v 1.000000 -0.000000 -2.975209
v -1.000000 -0.000000 -2.975210
v 2.975209 -0.000000 -2.975209
v -2.975209 -0.000000 -2.975210
v -1.000000 1.055716 14.928632
v 1.000000 1.055716 14.928632
v -2.975209 1.055716 14.928632
v -1.004023 1.055716 17.959557
v 1.969632 1.055716 17.959557
v -3.940819 1.055716 17.959557
v 3.996869 -1.021660 -0.998172
v 3.996869 -1.021660 0.559444
v 3.996869 -1.021660 -2.536481
v 19.994656 -1.021660 -0.998172
v 19.994656 -1.021660 0.559444
v 19.994656 -1.021660 -2.536481
v 20.982260 -1.021660 -1.000100
v 20.982260 -1.021660 1.024186
v 20.982260 -1.021660 -2.999294
v 25.034843 -1.021660 -1.000100
v 25.034843 -1.021660 1.024186
v 25.034843 -1.021660 -2.999294
v 26.022449 -1.021660 0.604624
v 26.022449 -1.021660 -0.998359
v 26.022449 -1.021660 -2.581474
v 31.948078 -1.021660 -0.998359
v 31.948078 -1.021660 0.604624
v 31.948078 -1.021660 -2.581474
v 32.969738 -1.021660 0.962971
v 32.969738 -1.021660 -0.999846
v 32.969738 -1.021660 -2.938333
v 46.954662 -1.021660 -0.999846
v 46.954662 -1.021660 0.962971
v 46.954662 -1.021660 -2.938333
v 46.954662 -1.021661 -9.949045
v 32.969738 -1.021661 -9.949045
v 46.954662 -1.021660 5.925610
v 27.061834 -1.021660 5.925610
v 27.061834 -1.021659 28.328442
v 46.954662 -1.021659 28.328442
v 31.379408 -1.021659 34.315117
v 42.637089 -1.021659 34.315117
v 32.969738 -1.021661 -13.887648
v 50.026772 -1.021661 -13.887648
v 32.969738 -1.021661 -20.031868
v 50.026772 -1.021661 -20.031868
v 32.969738 -1.021661 -24.049242
v 47.112206 -1.021661 -24.049242
v 29.976400 -1.021661 -30.035917
v 47.112206 -1.021661 -30.035917
v 29.976400 -1.021662 -33.029255
v 47.112206 -1.021662 -33.029255
v 29.976400 -1.021662 -39.961193
v 53.000000 -1.000002 -40.000000
v 30.000000 -1.000002 -48.000000
v 53.000000 -1.000002 -48.000000
v 49.000000 -1.000002 -53.000000
v 34.000000 -1.000002 -53.000000
v 58.000000 -1.000002 -52.000000
v 52.000000 -1.000002 -55.000000
v 60.000000 -1.000003 -58.000000
v 54.000000 -1.000003 -58.000000
v 60.000000 -1.000003 -80.000000
v 54.000000 -1.000003 -80.000000
v 50.000000 -1.000003 -80.000000
v 74.000000 -1.000003 -80.000000
v 54.000000 -1.000004 -94.000000
v 60.000000 -1.000004 -94.000000
v 74.000000 -1.000004 -94.000000
v 50.000000 -1.000004 -94.000000
v 1.000000 0.000000 1.000000
v 1.000000 1.055716 10.024664
v 2.975209 0.000000 1.000000
v 1.000000 1.055716 14.928632
v 1.969632 1.055716 17.959557
v 3.996869 -1.021660 0.559444
v 19.994656 -1.021660 0.559444
v 20.982260 -1.021660 1.024186
v 25.034843 -1.021660 1.024186
v 26.022449 -1.021660 0.604624
v 31.948078 -1.021660 0.604624
v 32.969738 -1.021660 0.962971
v 27.061834 -1.021660 5.925610
v 27.061834 -1.021659 28.328442
v 31.379408 -1.021659 34.315117
v 42.637089 -1.021659 34.315117
v 46.954662 -1.021659 28.328442
v 3.996869 8.935100 0.559444
v 19.994656 8.935100 0.559444
v 3.996869 8.935100 -2.536481
v 19.994656 8.935100 -2.536481
v 20.982260 8.935100 1.024185
v 20.982260 8.935100 -2.999295
v 25.034843 8.935100 1.024185
v 25.034843 8.935100 -2.999295
v 26.022449 8.935100 0.604624
v 26.022449 8.935100 -2.581474
v 31.948078 8.935100 0.604624
v 31.948078 8.935100 -2.581474
v 32.969738 8.935100 0.962971
v 32.969738 8.935100 -2.938334
v 46.954662 8.935100 -0.999847
v 46.954662 8.935100 0.962971
v 46.954662 8.935100 -2.938334
v 46.954662 8.935100 -9.949045
v 32.969738 8.935100 -9.949045
v 27.061834 8.935100 5.925609
v 46.954662 8.935100 5.925609
v 27.061834 8.935101 28.328442
v 46.954662 8.935101 28.328442
v 31.379408 8.935102 34.315117
v 42.637089 8.935102 34.315117
v 50.026772 8.935099 -13.887648
v 32.969738 8.935099 -13.887648
v 50.026772 8.935099 -20.031868
v 32.969738 8.935099 -20.031868
v 47.112206 8.935099 -24.049242
v 32.969738 8.935099 -24.049242
v 47.112206 8.935099 -30.035917
v 29.976400 8.935099 -30.035917
v 47.112206 8.935098 -33.029255
v 29.976400 8.935098 -33.029255
v 53.000000 8.956758 -40.000000
v 29.976400 8.935098 -39.961193
v 49.000000 8.956758 -53.000000
v 34.000000 8.956758 -53.000000
v 30.000000 8.956758 -48.000000
v 53.000000 8.956758 -48.000000
v 58.000000 8.956758 -52.000000
v 52.000000 8.956757 -55.000000
v 60.000000 8.956757 -58.000000
v 54.000000 8.956757 -58.000000
v 60.000000 8.956756 -80.000000
v 54.000000 8.956756 -80.000000
v 74.000000 8.956756 -80.000000
v 50.000000 8.956756 -80.000000
v 54.000000 8.956756 -94.000000
v 60.000000 8.956756 -94.000000
v 74.000000 8.956756 -94.000000
v 50.000000 8.956756 -94.000000
v 19.994656 8.935100 0.559444
v 3.996869 8.935100 0.559444
v 20.982260 8.935100 1.024185
v 25.034843 8.935100 1.024185
v 26.022449 8.935100 0.604624
v 31.948078 8.935100 0.604624
v 32.969738 8.935100 0.962971
v 27.061834 8.935100 5.925609
v 27.061834 8.935101 28.328442
v 31.379408 8.935102 34.315117
v 42.637089 8.935102 34.315117
v 46.954662 8.935101 28.328442
v 79.405197 -20.982784 -100.105255
v 79.405197 -20.982780 20.252907
v 9.863264 -20.982779 37.003258
v 9.863264 -20.982784 -100.105255
v 79.405197 30.713232 -100.105240
v 79.405197 30.713236 20.252916
v 9.863264 30.713238 37.003258
v 9.863264 30.713232 -100.105255
v 79.405197 -20.982782 -25.107700
v 9.863264 -20.982782 -25.107700
v 79.405197 30.713234 -25.107689
v 9.863264 30.713234 -25.107702
v -13.940077 30.713234 -25.107702
v -13.940077 -20.982782 -25.107700
v -11.169403 30.713232 -100.105255
v -11.169403 -20.982784 -100.105255
v 90.919670 -20.982779 33.012371
v 90.919670 30.713238 33.012383
v 89.606979 30.713238 48.729092
v 89.606979 -20.982779 48.729084
v 78.229561 -20.982779 63.077789
v 78.229561 30.713238 63.077805
v 60.637108 30.713240 72.319427
v 60.637108 -20.982777 72.319412
v 19.493946 -20.982777 71.420349
v 19.493946 30.713240 71.420364
v 4.197458 -20.982779 61.222687
v 4.197458 30.713238 61.222702
v 1.966720 30.713238 44.970184
v 1.966720 -20.982779 44.970169
v 1.966720 30.713236 19.934237
v 1.966720 -20.982780 19.934223
v -12.741323 30.713238 31.833078
v -12.741323 -20.982779 31.833080
v 84.173615 15.979873 21.663902
v 84.173615 15.979867 -112.276360
v 6.784058 15.979867 -112.276367
v 84.173615 15.979871 -28.815529
v -19.705429 15.979871 -28.815536
v -16.622089 15.979867 -112.276367
v 96.987457 15.979874 35.863239
v 95.526642 15.979874 53.353535
v 82.865311 15.979875 69.321465
v 63.287594 15.979876 79.605972
v 17.501535 15.979876 78.605461
v 0.478878 15.979875 67.257019
v -2.003590 15.979874 49.170444
v -2.003590 15.979873 21.309261
v -18.371399 15.979874 34.550861
vn 0.428938 0.887509 -0.168187
vn 0.000000 1.000000 0.000000
vn 0.620289 0.714225 -0.324107
vn 0.606891 0.776513 0.169408
vn 0.429060 0.740562 0.517167
vn 0.087985 0.788568 0.608600
vn -0.242134 0.785516 0.569445
vn -0.601245 0.757744 0.253548
vn -0.714835 0.698508 0.032289
vn -0.283944 0.958831 0.000000
vn -0.670370 0.741997 0.001190
vn 0.468459 -0.864772 -0.180700
vn 0.684103 -0.640797 -0.348369
vn 0.000000 -1.000000 0.000000
vn 0.717917 -0.665822 0.203070
vn 0.515000 -0.590564 0.621265
vn 0.106937 -0.670980 0.733696
vn -0.290048 -0.670492 0.682821
vn -0.686209 -0.663961 0.297006
vn -0.785882 -0.617328 0.035676
vn -0.304788 -0.952391 0.000000
vn -0.769189 -0.638997 0.001312
vn -0.993774 0.109928 -0.017457
vn -0.993957 0.107608 0.020905
vn -0.988128 -0.152043 0.020783
vn -0.932707 0.360027 0.019623
vn -0.992309 0.084567 0.090335
vn -0.996948 0.078005 0.000000
vn -0.757653 0.124668 0.640584
vn -0.205115 0.135075 0.969359
vn 0.307718 0.139164 0.941221
vn 0.632099 0.139195 0.762261
vn 0.881314 0.134037 0.453047
vn 0.976897 0.102481 -0.187384
vn 0.929197 0.077090 -0.361370
vn -0.715262 0.201056 -0.669271
vn -0.486831 -0.725394 -0.486587
vn -0.394024 0.853084 -0.341990
vn 0.000000 0.185095 -0.982696
vn 0.000000 -0.810144 -0.586169
vn 0.000000 0.904660 -0.426069
vn 0.780389 -0.625263 0.000000
vn 0.995727 0.092196 0.000000
vn 0.698538 0.715537 0.000000
vn 0.498276 -0.723838 -0.477218
vn 0.734916 0.190649 -0.650777
vn 0.413953 0.846217 -0.335429
vn -0.061678 0.979644 0.190985
vn -0.811060 0.000000 -0.584918
vn -0.307321 0.000000 0.951567
vn -0.299356 0.000000 -0.954131
vn -0.598743 0.000000 -0.800928
vn 0.598743 0.000000 -0.800928
vn 0.299356 0.000000 -0.954131
vn 0.979003 0.000000 -0.203711
vn 0.913205 0.000000 -0.407422
vn 0.830836 0.000000 0.556475
vn 0.960479 0.000000 0.278237
vn 0.758415 0.000000 -0.651723
vn 0.939848 0.000000 0.341533
vn 0.111728 0.000000 -0.993713
vn 0.223457 0.000000 -0.974700
vn -0.265389 0.000000 -0.964110
vn -0.132694 0.000000 -0.991150
vn 0.290048 0.000000 -0.956999
vn 0.145024 0.000000 -0.989410
vn 0.000000 0.000000 -1.000000
vn 0.498093 -0.009217 -0.867061
vn -0.666646 -0.666646 -0.333323
vn -0.447188 0.000000 -0.894406
vn 0.496414 0.082339 -0.864132
vn -0.408246 -0.408246 0.816492
vn -0.894406 0.000000 0.447188
vn 0.666646 -0.666646 0.333323
vn 0.408246 -0.408246 -0.816492
vn 0.894406 0.000000 -0.447188
vn 0.447188 0.000000 0.894406
vn 0.538011 -0.008942 -0.842860
vn 0.536302 0.080050 -0.840205
vn 0.577349 0.577349 0.577349
vn 0.707083 0.000000 0.707083
vn -0.577349 0.577349 0.577349
vn -0.707083 0.000000 0.707083
vn 0.574175 0.810968 0.112461
vn 0.923154 0.000000 0.384411
vn -0.809992 0.559130 -0.176794
vn -0.994293 0.000000 -0.106632
vn 0.527482 0.713218 0.461562
vn 0.658498 0.000000 0.752556
vn -0.527573 0.720054 -0.450728
vn -0.872341 0.000000 -0.488845
vn 0.266488 0.720664 0.639973
vn 0.192206 0.000000 0.981353
vn -0.541429 0.825129 -0.161077
vn -0.821406 0.000000 -0.570299
vn 0.554338 0.832270 0.002197
vn 0.647267 0.727103 0.228645
vn 0.999969 0.000000 0.001465
vn 0.943114 0.000000 0.332377
vn -0.612598 0.726463 -0.311289
vn -0.973785 0.000000 -0.227332
vn 0.267830 0.342998 0.900327
vn 0.570299 0.000000 0.821406
vn 0.832026 0.554674 0.000000
vn 1.000000 0.000000 0.000000
vn -0.563677 0.815485 -0.131077
vn -0.890622 0.000000 -0.454665
vn 0.690359 0.715537 -0.106662
vn 0.952208 0.000000 -0.305368
vn -0.707083 0.707083 0.000000
vn -1.000000 0.000000 0.000000
vn 0.665181 0.715537 -0.213324
vn 0.988250 0.000000 -0.152684
vn -0.630757 0.722556 0.282876
vn -0.978820 0.000000 0.204596
vn 0.707083 0.707083 0.000000
vn -0.676656 0.722556 0.141423
vn -0.912442 0.000000 0.409192
vn 0.599994 0.799982 0.000000
vn -0.739189 0.573656 -0.352824
vn -0.976501 0.000000 -0.215369
vn -0.567370 0.813868 -0.125126
vn -0.902463 0.000000 -0.430738
vn 0.561693 0.346263 0.751366
vn 0.299356 0.000000 0.954131
vn -0.240852 0.593890 0.767602
vn -0.598743 0.000000 0.800928
vn -0.631428 0.722434 0.281716
vn -0.979003 0.000000 0.203711
vn -0.599994 0.799982 0.000000
vn -0.776971 0.587909 -0.225074
vn -0.830836 0.000000 -0.556475
vn -0.371410 0.918577 -0.134953
vn -0.758415 0.000000 0.651723
vn 0.416272 0.893429 0.168676
vn 0.660146 0.000000 0.751091
vn -0.832026 0.554674 0.000000
vn 0.156407 0.711539 0.684988
vn 0.111301 0.000000 0.993774
vn -0.132969 0.803613 0.580065
vn -0.111728 0.000000 0.993713
vn -0.078402 0.805078 0.587909
vn -0.264412 0.000000 0.964385
vn 0.092959 0.713431 0.694510
vn 0.265389 0.000000 0.964110
vn -0.218787 0.561541 0.797967
vn -0.132206 0.000000 0.991211
vn 0.185949 0.713431 0.675558
vn 0.132694 0.000000 0.991150
vn 0.101077 0.714621 0.692129
vn 0.289010 0.000000 0.957305
vn -0.119846 0.562975 0.817713
vn -0.290048 0.000000 0.956999
vn 0.202155 0.714621 0.669607
vn 0.144505 0.000000 0.989502
vn -0.171606 0.806146 0.566240
vn -0.145024 0.000000 0.989410
vn 0.336528 0.812494 0.475936
vn 0.000000 0.000000 1.000000
vn 0.411176 0.701956 0.581500
vn 0.252724 0.967528 0.000000
vn 0.947874 0.000000 0.318583
vn 0.108829 0.058321 0.992340
vn 0.066652 0.070376 0.995270
vn 0.000000 0.999237 -0.038759
vn 0.098697 0.104221 0.989624
vn 0.000000 0.998291 -0.058168
vn 0.305094 0.952300 0.000000
vn 0.505448 0.862850 0.000000
vn 0.000000 0.997772 -0.066500
vn 0.000000 0.996979 -0.077548
usemtl (null)
s 1
f 169//1 170//2 181//3
f 170//2 182//4 181//3
f 170//2 185//5 182//4
f 170//2 186//6 185//5
f 170//2 189//7 186//6
f 170//2 191//8 189//7
f 170//2 192//9 191//8
f 170//2 194//10 192//9
f 170//2 175//2 194//10
f 175//2 176//11 194//10
f 165//12 180//13 166//14
f 166//14 180//13 183//15
f 166//14 183//15 184//16
f 166//14 184//16 187//17
f 166//14 187//17 188//18
f 166//14 188//18 190//19
f 166//14 190//19 193//20
f 166//14 193//20 195//21
f 166//14 195//21 173//14
f 173//14 195//21 177//22
f 202//23 177//22 212//24
f 177//22 197//25 212//24
f 176//11 202//23 212//24
f 176//11 212//24 196//26
f 210//27 192//9 211//28
f 192//9 194//10 211//28
f 193//20 210//27 211//28
f 193//20 211//28 195//21
f 209//29 191//8 210//27
f 191//8 192//9 210//27
f 190//19 209//29 210//27
f 190//19 210//27 193//20
f 208//30 189//7 209//29
f 189//7 191//8 209//29
f 188//18 208//30 209//29
f 188//18 209//29 190//19
f 207//31 186//6 208//30
f 186//6 189//7 208//30
f 187//17 207//31 208//30
f 187//17 208//30 188//18
f 206//32 185//5 207//31
f 185//5 186//6 207//31
f 184//16 206//32 207//31
f 184//16 207//31 187//17
f 205//33 182//4 185//5
f 205//33 185//5 206//32
f 183//15 205//33 184//16
f 205//33 206//32 184//16
f 204//34 181//3 182//4
f 204//34 182//4 205//33
f 180//13 204//34 183//15
f 204//34 205//33 183//15
f 198//35 169//1 181//3
f 198//35 181//3 204//34
f 165//12 198//35 180//13
f 198//35 204//34 180//13
f 203//36 179//37 202//23
f 179//37 177//22 202//23
f 178//38 203//36 202//23
f 178//38 202//23 176//11
f 200//39 167//40 179//37
f 200//39 179//37 203//36
f 171//41 200//39 178//38
f 200//39 203//36 178//38
f 198//35 165//12 172//42
f 198//35 172//42 201//43
f 169//1 198//35 174//44
f 198//35 201//43 174//44
f 201//43 172//42 164//45
f 201//43 164//45 199//46
f 174//44 201//43 168//47
f 201//43 199//46 168//47
f 200//39 171//41 168//47
f 200//39 168//47 199//46
f 167//40 200//39 164//45
f 200//39 199//46 164//45
f 167//40 173//14 179//37
f 173//14 177//22 179//37
f 175//2 171//41 178//38
f 175//2 178//38 176//11
f 175//2 170//2 169//1
f 175//2 169//1 174//44
f 171//41 175//2 168//47
f 175//2 174//44 168//47
f 173//14 167//40 164//45
f 173//14 164//45 172//42
f 166//14 173//14 165//12
f 173//14 172//42 165//12
f 51//48 98//49 163//49
f 51//48 163//49 121//50
f 98//49 97//51 162//52
f 98//49 162//52 163//49
f 97//51 96//53 161//54
f 97//51 161//54 162//52
f 96//53 95//55 160//56
f 96//53 160//56 161//54
f 95//55 94//57 159//58
f 95//55 159//58 160//56
f 94//57 93//59 158//60
f 94//57 158//60 159//58
f 93//59 92//61 157//62
f 93//59 157//62 158//60
f 92//61 91//63 156//64
f 92//61 156//64 157//62
f 91//63 90//64 155//63
f 91//63 155//63 156//64
f 90//64 89//65 154//66
f 90//64 154//66 155//63
f 89//65 88//66 152//65
f 89//65 152//65 154//66
f 88//66 87//67 153//67
f 88//66 153//67 152//65
f 78//68 81//69 151//70
f 78//68 151//70 148//71
f 81//69 76//72 147//73
f 81//69 147//73 151//70
f 77//74 80//75 150//76
f 77//74 150//76 146//77
f 80//75 79//78 149//79
f 80//75 149//79 150//76
f 78//68 79//78 149//79
f 78//68 149//79 148//71
f 76//72 75//80 145//81
f 76//72 145//81 147//73
f 74//82 77//74 146//77
f 74//82 146//77 144//83
f 73//84 75//80 145//81
f 73//84 145//81 143//85
f 74//82 72//86 142//87
f 74//82 142//87 144//83
f 71//88 73//84 143//85
f 71//88 143//85 141//89
f 72//86 70//90 140//91
f 72//86 140//91 142//87
f 68//92 71//88 141//89
f 68//92 141//89 136//93
f 70//90 67//94 139//95
f 70//90 139//95 140//91
f 64//96 66//97 135//98
f 66//97 138//99 135//98
f 67//94 65//100 134//101
f 67//94 134//101 139//95
f 66//97 69//102 137//103
f 66//97 137//103 138//99
f 69//102 68//92 136//93
f 69//102 136//93 137//103
f 62//104 64//96 135//98
f 62//104 135//98 133//105
f 65//100 63//106 132//107
f 65//100 132//107 134//101
f 60//108 62//104 133//105
f 60//108 133//105 131//109
f 63//106 61//110 130//111
f 63//106 130//111 132//107
f 58//112 60//108 131//109
f 58//112 131//109 129//113
f 61//110 59//114 128//115
f 61//110 128//115 130//111
f 56//116 58//112 129//113
f 56//116 129//113 127//105
f 59//114 57//117 126//118
f 59//114 126//118 128//115
f 54//119 56//116 127//105
f 54//119 127//105 125//105
f 57//117 55//120 124//121
f 57//117 124//121 126//118
f 47//104 54//119 125//105
f 47//104 125//105 117//105
f 55//120 46//122 116//123
f 55//120 116//123 124//121
f 53//124 51//48 121//50
f 53//124 121//50 123//125
f 52//126 53//124 123//125
f 52//126 123//125 122//127
f 50//128 52//126 122//127
f 50//128 122//127 120//129
f 48//130 51//48 121//50
f 48//130 121//50 119//111
f 49//131 50//128 120//129
f 49//131 120//129 118//132
f 44//110 48//130 119//111
f 44//110 119//111 114//111
f 40//133 49//131 118//132
f 40//133 118//132 111//134
f 42//135 47//104 117//105
f 42//135 117//105 112//136
f 46//122 45//137 115//111
f 46//122 115//111 116//123
f 45//137 43//110 113//111
f 45//137 113//111 115//111
f 43//110 44//110 114//111
f 43//110 114//111 113//111
f 39//138 42//135 112//136
f 39//138 112//136 110//139
f 38//140 40//133 111//134
f 38//140 111//134 109//141
f 36//142 39//138 110//139
f 36//142 110//139 108//143
f 34//144 38//140 109//141
f 34//144 109//141 107//145
f 33//146 36//142 108//143
f 33//146 108//143 106//147
f 32//148 34//144 107//145
f 32//148 107//145 105//149
f 30//150 33//146 106//147
f 30//150 106//147 104//151
f 29//152 32//148 105//149
f 29//152 105//149 103//153
f 27//154 30//150 104//151
f 27//154 104//151 102//155
f 26//156 29//152 103//153
f 26//156 103//153 100//157
f 24//158 27//154 102//155
f 24//158 102//155 101//159
f 23//160 26//156 100//157
f 23//160 100//157 99//159
f 51//48 53//124 97//51
f 51//48 97//51 98//49
f 53//124 52//126 96//53
f 53//124 96//53 97//51
f 52//126 50//128 95//55
f 52//126 95//55 96//53
f 50//128 49//131 94//57
f 50//128 94//57 95//55
f 49//131 40//133 93//59
f 49//131 93//59 94//57
f 40//133 38//140 92//61
f 40//133 92//61 93//59
f 38//140 34//144 91//63
f 38//140 91//63 92//61
f 34//144 32//148 90//64
f 34//144 90//64 91//63
f 32//148 29//152 89//65
f 32//148 89//65 90//64
f 29//152 26//156 88//66
f 29//152 88//66 89//65
f 26//156 23//160 87//67
f 26//156 87//67 88//66
f 23//160 8//161 84//162
f 23//160 84//162 87//67
f 17//2 20//2 86//163
f 17//2 86//163 85//164
f 5//165 17//2 85//164
f 5//165 85//164 83//166
f 8//161 2//167 82//81
f 8//161 82//81 84//162
f 2//167 5//165 83//166
f 2//167 83//166 82//81
f 75//80 76//72 81//69
f 75//80 81//69 78//68
f 77//74 74//82 79//78
f 77//74 79//78 80//75
f 75//80 74//82 79//78
f 75//80 79//78 78//68
f 73//84 72//86 74//82
f 73//84 74//82 75//80
f 71//88 70//90 73//84
f 70//90 72//86 73//84
f 68//92 67//94 71//88
f 67//94 70//90 71//88
f 66//97 67//94 68//92
f 66//97 68//92 69//102
f 64//96 65//100 66//97
f 65//100 67//94 66//97
f 62//104 63//106 64//96
f 63//106 65//100 64//96
f 60//108 61//110 63//106
f 60//108 63//106 62//104
f 58//112 59//114 61//110
f 58//112 61//110 60//108
f 56//116 57//117 59//114
f 56//116 59//114 58//112
f 54//119 55//120 57//117
f 54//119 57//117 56//116
f 47//104 46//122 54//119
f 46//122 55//120 54//119
f 51//48 50//128 52//126
f 51//48 52//126 53//124
f 48//130 49//131 50//128
f 48//130 50//128 51//48
f 44//110 40//133 48//130
f 40//133 49//131 48//130
f 42//135 45//137 46//122
f 42//135 46//122 47//104
f 42//135 41//2 43//110
f 42//135 43//110 45//137
f 41//2 40//133 44//110
f 41//2 44//110 43//110
f 39//138 37//2 41//2
f 39//138 41//2 42//135
f 37//2 38//140 41//2
f 38//140 40//133 41//2
f 36//142 35//2 37//2
f 36//142 37//2 39//138
f 35//2 34//144 38//140
f 35//2 38//140 37//2
f 33//146 31//2 36//142
f 31//2 35//2 36//142
f 31//2 32//148 34//144
f 31//2 34//144 35//2
f 30//150 28//2 31//2
f 30//150 31//2 33//146
f 28//2 29//152 32//148
f 28//2 32//148 31//2
f 27//154 25//2 28//2
f 27//154 28//2 30//150
f 25//2 26//156 28//2
f 26//156 29//152 28//2
f 24//158 22//168 25//2
f 24//158 25//2 27//154
f 22//168 23//160 26//156
f 22//168 26//156 25//2
f 14//161 7//169 24//158
f 7//169 22//168 24//158
f 7//169 8//161 23//160
f 7//169 23//160 22//168
f 16//2 18//2 19//2
f 18//2 21//2 19//2
f 17//2 16//2 19//2
f 17//2 19//2 20//2
f 6//170 11//167 18//2
f 6//170 18//2 16//2
f 5//165 6//170 16//2
f 5//165 16//2 17//2
f 10//2 4//2 13//2
f 10//2 13//2 15//2
f 1//2 7//169 14//161
f 1//2 14//161 12//2
f 4//2 1//2 12//2
f 4//2 12//2 13//2
f 6//170 3//165 9//171
f 6//170 9//171 11//167
f 3//165 4//2 10//2
f 3//165 10//2 9//171
f 1//2 2//167 8//161
f 1//2 8//161 7//169
f 2//167 3//165 6//170
f 2//167 6//170 5//165
f 1//2 4//2 3//165
f 1//2 3//165 2//167
